<svg xmlns="http://www.w3.org/2000/svg" xmlns:xlink="http://www.w3.org/1999/xlink" width="1020" height="241" viewBox="0 0 1020 241"><svg width="1020" height="240.31841920366224" viewBox="-10 -10 312.2207 84.381477" id="logo" y="0"><g transform="translate(-2.378 -124.218)" font-weight="400" word-spacing="0"><g style="line-height:1.25" font-size="47.317" font-family="Lato" letter-spacing="0" stroke-width="1.183"><path d="M19.814 140.826q-1.348-2.034-3.004-2.862-1.633-.828-3.739-.828-2.082 0-3.643.757t-2.626 2.153q-1.041 1.372-1.585 3.312-.52 1.916-.52 4.235 0 5.252 1.916 7.736 1.94 2.46 5.583 2.46 2.319 0 4.235-1.206 1.916-1.207 3.383-3.383zm2.248-15.946v34.424h-1.23q-.616 0-.71-.615l-.237-3.715q-1.561 2.13-3.643 3.383-2.082 1.254-4.685 1.254-4.353 0-6.766-3.004-2.413-3.005-2.413-9.014 0-2.58.662-4.803.686-2.248 1.987-3.88 1.302-1.656 3.194-2.603 1.917-.946 4.4-.946 2.39 0 4.141.875 1.75.876 3.052 2.603V124.88zM46.325 145.156q0-1.893-.544-3.383-.52-1.515-1.49-2.556-.97-1.04-2.319-1.585-1.325-.567-2.934-.567-1.821 0-3.265.567-1.443.568-2.507 1.633-1.041 1.064-1.68 2.555-.639 1.49-.852 3.336zm-15.71 1.443v.45q0 2.65.616 4.66.615 2.011 1.75 3.383 1.136 1.349 2.745 2.035 1.609.686 3.596.686 1.775 0 3.076-.378 1.301-.403 2.176-.876.9-.497 1.42-.875.52-.402.757-.402.308 0 .473.236l.615.757q-.567.71-1.514 1.325-.923.615-2.082 1.065-1.135.426-2.46.686-1.302.26-2.626.26-2.414 0-4.4-.828-1.988-.852-3.408-2.46-1.42-1.61-2.2-3.928-.757-2.342-.757-5.347 0-2.531.71-4.66.733-2.153 2.082-3.691 1.372-1.561 3.335-2.437 1.988-.875 4.496-.875 1.987 0 3.69.686 1.704.686 2.958 2.01 1.254 1.302 1.963 3.218.734 1.917.734 4.401 0 .52-.142.71-.142.189-.473.189zM62.176 148.894q1.514 0 2.697-.426 1.183-.45 1.987-1.23.805-.781 1.23-1.87.426-1.088.426-2.412 0-1.325-.45-2.414-.425-1.112-1.253-1.892-.805-.781-1.987-1.207-1.16-.426-2.65-.426t-2.674.426q-1.159.426-1.987 1.207-.804.78-1.23 1.892-.426 1.089-.426 2.414 0 1.324.426 2.413.426 1.088 1.23 1.869.828.78 1.987 1.23 1.183.426 2.674.426zm8.8 11.995q0-1.112-.59-1.775-.569-.686-1.539-1.064-.97-.379-2.247-.52-1.254-.166-2.65-.237l-2.768-.142q-1.396-.071-2.626-.284-.9.355-1.656.828-.757.45-1.301 1.04-.545.592-.852 1.278-.308.71-.308 1.515 0 1.04.52 1.916.545.899 1.562 1.538 1.041.662 2.532 1.04 1.49.38 3.43.38 1.798 0 3.336-.403 1.562-.402 2.697-1.136 1.16-.733 1.798-1.75.663-1.018.663-2.224zm2.461-24.085v.781q0 .52-.662.639l-3.596.26q.662.9 1.017 2.011.355 1.112.355 2.413 0 1.704-.615 3.1-.592 1.372-1.704 2.365-1.088.97-2.65 1.515-1.537.544-3.406.544-2.011 0-3.667-.615-.994.567-1.585 1.348-.568.757-.568 1.514 0 1.018.71 1.562.733.544 1.892.804 1.183.237 2.674.308 1.514.07 3.075.165 1.562.071 3.052.284 1.514.213 2.674.757 1.183.52 1.892 1.49.734.947.734 2.532 0 1.467-.734 2.816-.733 1.348-2.129 2.39-1.372 1.04-3.336 1.655-1.964.639-4.4.639-2.485 0-4.354-.52-1.869-.497-3.146-1.373-1.254-.851-1.893-1.987-.639-1.136-.639-2.413 0-1.87 1.23-3.194 1.23-1.349 3.36-2.106-1.183-.402-1.916-1.159-.71-.78-.71-2.106 0-.496.19-1.04.189-.545.567-1.065.379-.544.923-1.018.544-.473 1.23-.851-1.68-.97-2.626-2.579-.923-1.609-.923-3.762 0-1.703.592-3.075.615-1.396 1.727-2.39 1.112-.994 2.65-1.538 1.561-.544 3.454-.544 1.561 0 2.862.379 1.325.378 2.366 1.064zM81.092 124.88v34.424H78.82V124.88zM91.558 135.763v23.54h-2.247v-23.54zm.97-8.115q0 .426-.189.805-.166.355-.45.639-.283.283-.662.45-.378.165-.804.165-.426 0-.805-.166-.378-.166-.662-.45-.284-.283-.45-.638-.165-.379-.165-.805 0-.425.165-.804.166-.402.45-.686.284-.284.662-.45.379-.165.805-.165.426 0 .804.165.379.166.663.45.283.284.45.686.188.379.188.804zM116.1 145.156q0-1.893-.544-3.383-.52-1.515-1.49-2.556-.97-1.04-2.32-1.585-1.324-.567-2.933-.567-1.822 0-3.265.567-1.443.568-2.508 1.633-1.04 1.064-1.68 2.555-.638 1.49-.851 3.336zm-15.71 1.443v.45q0 2.65.616 4.66.615 2.011 1.75 3.383 1.136 1.349 2.745 2.035 1.608.686 3.596.686 1.774 0 3.075-.378 1.302-.403 2.177-.876.899-.497 1.42-.875.52-.402.757-.402.307 0 .473.236l.615.757q-.568.71-1.514 1.325-.923.615-2.082 1.065-1.136.426-2.46.686-1.302.26-2.627.26-2.413 0-4.4-.828-1.988-.852-3.407-2.46-1.42-1.61-2.2-3.928-.758-2.342-.758-5.347 0-2.531.71-4.66.734-2.153 2.082-3.691 1.372-1.561 3.336-2.437 1.987-.875 4.495-.875 1.988 0 3.691.686 1.703.686 2.957 2.01 1.254 1.302 1.964 3.218.733 1.917.733 4.401 0 .52-.142.71-.142.189-.473.189zM126.414 141.441q.544-1.443 1.23-2.555.71-1.135 1.61-1.916.922-.78 2.034-1.183 1.135-.426 2.508-.426.733 0 1.443.142.71.118 1.254.45l-.19 1.561q-.118.379-.449.379-.284 0-.875-.166-.568-.166-1.515-.166-1.372 0-2.436.426-1.041.402-1.893 1.23-.828.829-1.467 2.059-.615 1.206-1.136 2.792v15.236h-2.27v-23.54h1.206q.402 0 .568.165.165.166.213.568z" style="-inkscape-font-specification:'Lato Light'" font-weight="300" fill="#333"></path><path d="M152.818 148.941q-2.531.118-4.259.45-1.727.307-2.768.804-1.04.497-1.49 1.16-.45.662-.45 1.443 0 1.537.9 2.2.922.662 2.389.662 1.798 0 3.1-.639 1.324-.662 2.578-1.987zm-13.39-10.528q4.187-3.833 10.078-3.833 2.13 0 3.809.71 1.68.686 2.839 1.94 1.16 1.23 1.75 2.957.616 1.728.616 3.786v15.33h-2.65q-.828 0-1.278-.236-.45-.26-.71-1.017l-.52-1.751q-.923.828-1.798 1.467-.875.615-1.822 1.04-.946.427-2.034.64-1.065.236-2.366.236-1.538 0-2.84-.402-1.3-.426-2.247-1.254-.946-.828-1.467-2.058-.52-1.23-.52-2.863 0-.923.307-1.822.308-.922.994-1.75.71-.828 1.822-1.562 1.112-.733 2.72-1.277 1.633-.545 3.786-.876 2.153-.355 4.921-.426v-1.42q0-2.436-1.041-3.595-1.041-1.183-3.005-1.183-1.42 0-2.366.331-.922.331-1.632.757-.71.402-1.301.734-.568.33-1.278.33-.615 0-1.04-.307-.427-.331-.687-.757zM164.023 159.304V135.03h3.573q1.135 0 1.49 1.065l.379 1.798q.639-.71 1.325-1.302.71-.591 1.49-1.017.805-.426 1.704-.662.922-.26 2.01-.26 2.295 0 3.762 1.253 1.49 1.23 2.224 3.289.568-1.207 1.42-2.058.851-.876 1.869-1.42 1.017-.544 2.153-.804 1.159-.26 2.318-.26 2.011 0 3.573.614 1.561.616 2.626 1.799 1.064 1.182 1.609 2.886.567 1.703.567 3.904v15.449h-5.843v-15.45q0-2.318-1.018-3.477-1.017-1.183-2.98-1.183-.9 0-1.68.307-.757.308-1.349.9-.568.567-.899 1.443-.331.875-.331 2.01v15.45h-5.867v-15.45q0-2.436-.994-3.548-.97-1.112-2.863-1.112-1.277 0-2.39.639-1.088.615-2.034 1.703v17.768zM214.411 134.651q2.697 0 4.897.876 2.224.875 3.786 2.484 1.585 1.609 2.437 3.927.851 2.319.851 5.181 0 2.887-.851 5.205-.852 2.319-2.437 3.951-1.562 1.633-3.786 2.508-2.2.876-4.897.876-2.72 0-4.945-.876-2.223-.875-3.809-2.508-1.561-1.632-2.436-3.95-.852-2.32-.852-5.206 0-2.862.852-5.18.875-2.32 2.436-3.928 1.586-1.609 3.81-2.484 2.223-.876 4.944-.876zm0 20.512q3.028 0 4.472-2.034 1.466-2.035 1.466-5.962 0-3.928-1.466-5.986-1.444-2.058-4.472-2.058-3.076 0-4.566 2.082-1.467 2.058-1.467 5.962 0 3.903 1.467 5.962 1.49 2.034 4.566 2.034zM236.353 139.241q1.136-2.176 2.697-3.407 1.562-1.254 3.69-1.254 1.68 0 2.698.734l-.379 4.377q-.118.426-.354.615-.213.165-.592.165-.355 0-1.065-.118-.686-.118-1.348-.118-.97 0-1.727.284-.757.284-1.372.828-.592.52-1.065 1.277-.45.757-.852 1.727v14.953h-5.843V135.03h3.43q.9 0 1.254.331.355.308.473 1.136zM254.549 135.03v24.274h-5.868V135.03zm.804-7.074q0 .757-.307 1.42-.308.662-.828 1.159-.497.497-1.183.804-.686.284-1.467.284-.757 0-1.443-.284-.663-.307-1.16-.804-.497-.497-.804-1.16-.284-.662-.284-1.419 0-.78.284-1.467.307-.686.804-1.183.497-.497 1.16-.78.686-.308 1.443-.308.78 0 1.467.307.686.284 1.183.781.52.497.828 1.183.307.686.307 1.467zM260.506 159.304V135.03h3.573q1.135 0 1.49 1.065l.379 1.798q.639-.71 1.325-1.302.71-.591 1.49-1.017.805-.426 1.704-.662.922-.26 2.01-.26 2.295 0 3.762 1.253 1.49 1.23 2.224 3.289.568-1.207 1.42-2.058.851-.876 1.869-1.42 1.017-.544 2.153-.804 1.159-.26 2.318-.26 2.011 0 3.573.614 1.561.616 2.626 1.799 1.064 1.182 1.609 2.886.567 1.703.567 3.904v15.449h-5.843v-15.45q0-2.318-1.018-3.477-1.017-1.183-2.98-1.183-.9 0-1.68.307-.757.308-1.349.9-.568.567-.899 1.443-.331.875-.331 2.01v15.45h-5.867v-15.45q0-2.436-.994-3.548-.97-1.112-2.863-1.112-1.277 0-2.39.639-1.088.615-2.034 1.703v17.768z" style="-inkscape-font-specification:'Lato Bold'" font-weight="700" fill="#a00"></path></g><g style="line-height:1.25" font-size="14.111" font-family="sans-serif" letter-spacing="4.908" stroke-width=".508" fill="#333"><path d="M7.36 176.293h-.069q-.213-.062-.558-.124-.344-.068-.606-.068-.834 0-1.213.372-.372.365-.372 1.33v.261h2.336v1.089H4.584v6.608H3.288v-6.608h-.875v-1.089h.875v-.255q0-1.37.682-2.101.682-.737 1.97-.737.435 0 .78.04.35.042.64.097zM17.89 179.477h-.068q-.29-.07-.565-.097-.269-.034-.641-.034-.6 0-1.158.269-.558.261-1.074.682v5.464h-1.296v-7.697h1.296v1.137q.771-.62 1.357-.875.592-.262 1.206-.262.337 0 .489.021.152.014.455.062zM30.591 181.916q0 1.88-.964 2.97-.965 1.088-2.584 1.088-1.633 0-2.598-1.088-.957-1.09-.957-2.97 0-1.881.957-2.97.965-1.095 2.598-1.095 1.62 0 2.584 1.095.964 1.089.964 2.97zm-1.336 0q0-1.495-.586-2.219-.586-.73-1.626-.73-1.054 0-1.64.73-.579.724-.579 2.219 0 1.447.586 2.198.586.744 1.633.744 1.034 0 1.62-.737.592-.744.592-2.205zM43.947 185.76h-1.295v-4.382q0-.53-.062-.992-.062-.468-.228-.73-.172-.29-.496-.427-.324-.145-.84-.145-.531 0-1.11.262-.579.262-1.11.668v5.747h-1.295v-7.697h1.296v.855q.606-.503 1.254-.786.648-.282 1.33-.282 1.247 0 1.901.75.655.752.655 2.164zM55.345 185.692q-.365.096-.799.158-.427.062-.765.062-1.178 0-1.791-.634t-.613-2.032v-4.093h-.875v-1.089h.875v-2.212h1.295v2.212h2.673v1.089h-2.673v3.507q0 .606.028.95.027.338.193.635.151.275.413.406.269.124.813.124.317 0 .661-.09.345-.096.497-.158h.068zM66.475 175.04l-4.94 12.815h-1.192l4.92-12.816zM79.927 181.854q0 .964-.275 1.736-.27.772-.73 1.296-.49.544-1.076.82-.585.268-1.288.268-.655 0-1.144-.158-.49-.152-.965-.414l-.082.359h-1.213v-10.722h1.295v3.831q.545-.447 1.158-.73.613-.29 1.378-.29 1.364 0 2.15 1.048.792 1.047.792 2.956zm-1.337.034q0-1.378-.454-2.087-.455-.717-1.468-.717-.565 0-1.144.248-.578.241-1.075.627v4.41q.552.248.944.344.4.097.903.097 1.075 0 1.681-.703.613-.71.613-2.219zM92.835 185.76h-1.289v-.82q-.172.118-.468.331-.29.207-.565.331-.324.159-.744.262-.42.11-.986.11-1.04 0-1.764-.689-.723-.689-.723-1.757 0-.875.372-1.412.379-.545 1.075-.855.703-.31 1.688-.42.985-.11 2.115-.165v-.2q0-.441-.158-.73-.152-.29-.441-.455-.276-.159-.662-.214-.386-.055-.806-.055-.51 0-1.137.138-.627.13-1.295.386h-.069v-1.316q.379-.104 1.096-.228.716-.124 1.412-.124.813 0 1.413.138.606.131 1.047.455.434.317.661.82.228.503.228 1.247zm-1.289-1.894v-2.143q-.592.034-1.398.103-.8.07-1.268.2-.558.159-.903.496-.344.33-.344.917 0 .661.4.999.399.33 1.219.33.682 0 1.247-.261.565-.27 1.047-.641zM105.942 185.278q-.648.31-1.233.483-.58.172-1.234.172-.833 0-1.53-.241-.695-.248-1.191-.744-.503-.497-.779-1.254-.275-.758-.275-1.771 0-1.888 1.033-2.963 1.04-1.075 2.742-1.075.662 0 1.296.186.64.186 1.171.455v1.44h-.069q-.592-.462-1.226-.71-.627-.248-1.227-.248-1.102 0-1.743.744-.634.738-.634 2.17 0 1.393.62 2.144.627.744 1.757.744.393 0 .8-.104.406-.103.73-.268.282-.145.53-.303.248-.166.393-.283h.07zM119.504 185.76h-1.709l-3.086-3.369-.841.8v2.57h-1.295v-10.722h1.295v6.877l3.741-3.852h1.633l-3.576 3.556zM142.088 182.047h-5.67q0 .71.213 1.24.213.524.585.861.359.331.848.496.496.166 1.089.166.785 0 1.577-.31.8-.317 1.137-.62h.07v1.412q-.655.276-1.338.462-.682.186-1.433.186-1.915 0-2.99-1.034-1.075-1.04-1.075-2.949 0-1.888 1.027-2.997 1.033-1.11 2.714-1.11 1.558 0 2.398.91.848.91.848 2.584zm-1.261-.992q-.007-1.02-.517-1.578-.503-.558-1.536-.558-1.04 0-1.661.613-.613.613-.696 1.523zM155.395 185.76H154.1v-4.382q0-.53-.062-.992-.062-.468-.228-.73-.172-.29-.496-.427-.324-.145-.84-.145-.531 0-1.11.262-.579.262-1.11.668v5.747h-1.295v-7.697h1.296v.855q.606-.503 1.254-.786.648-.282 1.33-.282 1.247 0 1.901.75.655.752.655 2.164zM169.04 185.76h-1.296v-.806q-.558.483-1.164.751-.606.27-1.316.27-1.378 0-2.191-1.062-.806-1.061-.806-2.942 0-.978.275-1.743.283-.765.758-1.302.469-.524 1.089-.8.627-.275 1.295-.275.607 0 1.075.13.469.125.985.393v-3.335h1.296zm-1.296-1.894v-4.417q-.523-.234-.937-.324-.413-.09-.902-.09-1.089 0-1.695.759-.607.758-.607 2.15 0 1.37.469 2.087.468.71 1.502.71.551 0 1.116-.241.565-.248 1.054-.634zM192.609 185.76h-1.296v-.806q-.558.483-1.164.751-.607.27-1.316.27-1.378 0-2.191-1.062-.807-1.061-.807-2.942 0-.978.276-1.743.283-.765.758-1.302.469-.524 1.089-.8.627-.275 1.295-.275.606 0 1.075.13.468.125.985.393v-3.335h1.296zm-1.296-1.894v-4.417q-.523-.234-.937-.324-.413-.09-.902-.09-1.09 0-1.695.759-.607.758-.607 2.15 0 1.37.469 2.087.468.71 1.502.71.551 0 1.116-.241.565-.248 1.054-.634zM206.508 182.047h-5.67q0 .71.213 1.24.214.524.586.861.358.331.847.496.496.166 1.09.166.785 0 1.577-.31.8-.317 1.137-.62h.069v1.412q-.655.276-1.337.462-.682.186-1.433.186-1.916 0-2.99-1.034-1.075-1.04-1.075-2.949 0-1.888 1.026-2.997 1.034-1.11 2.715-1.11 1.557 0 2.398.91.847.91.847 2.584zm-1.26-.992q-.008-1.02-.517-1.578-.503-.558-1.537-.558-1.04 0-1.66.613-.614.613-.696 1.523zM220.036 178.064l-3.114 7.697h-1.303l-3.093-7.697h1.405l2.384 6.126 2.364-6.126zM232.971 182.047h-5.67q0 .71.213 1.24.214.524.586.861.358.331.847.496.496.166 1.089.166.785 0 1.578-.31.799-.317 1.137-.62h.068v1.412q-.654.276-1.336.462t-1.433.186q-1.916 0-2.99-1.034-1.076-1.04-1.076-2.949 0-1.888 1.027-2.997 1.034-1.11 2.715-1.11 1.557 0 2.398.91.847.91.847 2.584zm-1.26-.992q-.008-1.02-.518-1.578-.503-.558-1.536-.558-1.04 0-1.66.613-.614.613-.697 1.523zM241.152 185.76h-1.295v-10.72h1.295zM255.141 181.916q0 1.88-.964 2.97-.965 1.088-2.584 1.088-1.633 0-2.598-1.088-.958-1.09-.958-2.97 0-1.881.958-2.97.965-1.095 2.598-1.095 1.619 0 2.584 1.095.964 1.089.964 2.97zm-1.337 0q0-1.495-.585-2.219-.586-.73-1.626-.73-1.054 0-1.64.73-.579.724-.579 2.219 0 1.447.586 2.198.585.744 1.633.744 1.033 0 1.619-.737.592-.744.592-2.205zM268.834 181.82q0 .936-.269 1.715-.268.772-.757 1.31-.455.51-1.075.792-.614.275-1.303.275-.599 0-1.088-.13-.483-.132-.986-.407v3.224h-1.295v-10.535h1.295v.806q.517-.434 1.158-.723.648-.296 1.378-.296 1.392 0 2.164 1.054.778 1.047.778 2.914zm-1.337.034q0-1.392-.475-2.081-.475-.689-1.46-.689-.559 0-1.124.241-.565.241-1.082.634v4.362q.552.248.944.337.4.09.903.09 1.082 0 1.688-.73.606-.731.606-2.164zM282.203 182.047h-5.67q0 .71.213 1.24.214.524.586.861.358.331.847.496.497.166 1.09.166.785 0 1.577-.31.8-.317 1.137-.62h.069v1.412q-.655.276-1.337.462-.682.186-1.433.186-1.916 0-2.99-1.034-1.075-1.04-1.075-2.949 0-1.888 1.026-2.997 1.034-1.11 2.715-1.11 1.557 0 2.398.91.847.91.847 2.584zm-1.26-.992q-.008-1.02-.517-1.578-.503-.558-1.537-.558-1.04 0-1.66.613-.614.613-.696 1.523zM293.878 179.477h-.07q-.289-.07-.564-.097-.27-.034-.641-.034-.6 0-1.158.269-.558.261-1.075.682v5.464h-1.295v-7.697h1.295v1.137q.772-.62 1.358-.875.592-.262 1.206-.262.337 0 .489.021.151.014.455.062z"></path></g></g></svg></svg>