<?xml version="1.0" encoding="UTF-8" standalone="no"?>
<!-- Created with Inkscape (http://www.inkscape.org/) -->

<svg
   xmlns:dc="http://purl.org/dc/elements/1.1/"
   xmlns:cc="http://creativecommons.org/ns#"
   xmlns:rdf="http://www.w3.org/1999/02/22-rdf-syntax-ns#"
   xmlns:svg="http://www.w3.org/2000/svg"
   xmlns="http://www.w3.org/2000/svg"
   xmlns:sodipodi="http://sodipodi.sourceforge.net/DTD/sodipodi-0.dtd"
   xmlns:inkscape="http://www.inkscape.org/namespaces/inkscape"
   width="292.2207mm"
   height="64.381477mm"
   viewBox="0 0 292.2207 64.381477"
   version="1.1"
   id="svg8"
   inkscape:version="0.92.1 r15371"
   sodipodi:docname="logo.svg">
  <defs
     id="defs2" />
  <sodipodi:namedview
     id="base"
     pagecolor="#ffffff"
     bordercolor="#666666"
     borderopacity="1.0"
     inkscape:pageopacity="0.0"
     inkscape:pageshadow="2"
     inkscape:zoom="0.35"
     inkscape:cx="391.01331"
     inkscape:cy="150.29681"
     inkscape:document-units="mm"
     inkscape:current-layer="layer1"
     showgrid="false"
     fit-margin-top="0"
     fit-margin-left="0"
     fit-margin-right="0"
     fit-margin-bottom="0"
     inkscape:window-width="1920"
     inkscape:window-height="1017"
     inkscape:window-x="-8"
     inkscape:window-y="-8"
     inkscape:window-maximized="1" />
  <metadata
     id="metadata5">
    <rdf:RDF>
      <cc:Work
         rdf:about="">
        <dc:format>image/svg+xml</dc:format>
        <dc:type
           rdf:resource="http://purl.org/dc/dcmitype/StillImage" />
        <dc:title></dc:title>
      </cc:Work>
    </rdf:RDF>
  </metadata>
  <g
     inkscape:label="Camada 1"
     inkscape:groupmode="layer"
     id="layer1"
     transform="translate(-2.3777293,-124.21788)">
    <g
       aria-label="deglieramorim"
       style="font-style:normal;font-weight:normal;font-size:47.31732559px;line-height:1.25;font-family:sans-serif;letter-spacing:0px;word-spacing:0px;fill:#000000;fill-opacity:1;stroke:none;stroke-width:1.18293321"
       id="text3682">
      <path
         d="m 19.814164,140.82626 q -1.348544,-2.03464 -3.00465,-2.86269 -1.632448,-0.82806 -3.738069,-0.82806 -2.081962,0 -3.6434342,0.75708 -1.5614717,0.75708 -2.6261116,2.15294 -1.0409811,1.3722 -1.5851304,3.31221 -0.5204905,1.91635 -0.5204905,4.2349 0,5.25223 1.9163516,7.73639 1.9400104,2.4605 5.5834441,2.4605 2.318549,0 4.234901,-1.2066 1.916352,-1.20659 3.383189,-3.38318 z m 2.247573,-15.94593 v 34.42335 h -1.230251 q -0.615125,0 -0.70976,-0.61512 l -0.236586,-3.71441 q -1.561472,2.12927 -3.643434,3.38318 -2.081963,1.25391 -4.684416,1.25391 -4.3531935,0 -6.7663771,-3.00465 -2.4131836,-3.00465 -2.4131836,-9.01395 0,-2.57879 0.6624426,-4.80271 0.6861012,-2.24757 1.9873276,-3.88002 1.3012265,-1.6561 3.1939195,-2.60245 1.916352,-0.94635 4.400511,-0.94635 2.389525,0 4.140266,0.87537 1.750741,0.87537 3.051968,2.60246 v -13.95861 z"
         style="font-style:normal;font-variant:normal;font-weight:300;font-stretch:normal;font-family:Lato;-inkscape-font-specification:'Lato Light';fill:#333333;stroke-width:1.18293321"
         id="path3698" />
      <path
         d="m 46.325173,145.1558 q 0,-1.89269 -0.544149,-3.38319 -0.520491,-1.51415 -1.490496,-2.55513 -0.970005,-1.04099 -2.318549,-1.58513 -1.324885,-0.56781 -2.933674,-0.56781 -1.821717,0 -3.264895,0.56781 -1.443179,0.5678 -2.507819,1.63244 -1.040981,1.06464 -1.679765,2.55514 -0.638784,1.49049 -0.851712,3.33587 z m -15.709352,1.44318 v 0.44951 q 0,2.64977 0.615125,4.66076 0.615126,2.01099 1.750741,3.38319 1.135616,1.34854 2.744405,2.03464 1.608789,0.6861 3.596117,0.6861 1.7744,0 3.075626,-0.37853 1.301227,-0.4022 2.176597,-0.87537 0.899029,-0.49684 1.41952,-0.87537 0.520491,-0.4022 0.757077,-0.4022 0.307563,0 0.473173,0.23658 l 0.615126,0.75708 q -0.567808,0.70976 -1.514155,1.32489 -0.922688,0.61512 -2.081962,1.06464 -1.135616,0.42585 -2.460501,0.6861 -1.301227,0.26024 -2.626112,0.26024 -2.413183,0 -4.400511,-0.82805 -1.987328,-0.85171 -3.406847,-2.4605 -1.41952,-1.60879 -2.200256,-3.92734 -0.757077,-2.34221 -0.757077,-5.34686 0,-2.53147 0.70976,-4.66075 0.733418,-2.15294 2.081962,-3.69075 1.372202,-1.56148 3.335871,-2.43685 1.987328,-0.87537 4.495146,-0.87537 1.987328,0 3.690752,0.6861 1.703424,0.6861 2.957333,2.01099 1.253909,1.30123 1.963669,3.21758 0.733418,1.91635 0.733418,4.40051 0,0.52049 -0.141952,0.70976 -0.141952,0.18927 -0.473173,0.18927 z"
         style="font-style:normal;font-variant:normal;font-weight:300;font-stretch:normal;font-family:Lato;-inkscape-font-specification:'Lato Light';fill:#333333;stroke-width:1.18293321"
         id="path3700" />
      <path
         d="m 62.175737,148.89387 q 1.514155,0 2.697088,-0.42586 1.182933,-0.44951 1.987327,-1.23025 0.804395,-0.78073 1.230251,-1.86903 0.425856,-1.0883 0.425856,-2.41319 0,-1.32488 -0.449515,-2.41318 -0.425856,-1.11196 -1.253909,-1.89269 -0.804394,-0.78074 -1.987328,-1.20659 -1.159274,-0.42586 -2.64977,-0.42586 -1.490495,0 -2.673429,0.42586 -1.159274,0.42585 -1.987327,1.20659 -0.804395,0.78073 -1.230251,1.89269 -0.425856,1.0883 -0.425856,2.41318 0,1.32489 0.425856,2.41319 0.425856,1.0883 1.230251,1.86903 0.828053,0.78074 1.987327,1.23025 1.182934,0.42586 2.673429,0.42586 z m 8.801023,11.99494 q 0,-1.11196 -0.591467,-1.7744 -0.567808,-0.6861 -1.537813,-1.06464 -0.970005,-0.37854 -2.247573,-0.52049 -1.253909,-0.16561 -2.64977,-0.23659 -1.372202,-0.071 -2.768064,-0.14195 -1.395861,-0.071 -2.626111,-0.2839 -0.899029,0.35488 -1.656107,0.82805 -0.757077,0.44952 -1.301226,1.04098 -0.544149,0.59147 -0.851712,1.27757 -0.307562,0.70976 -0.307562,1.51415 0,1.04099 0.52049,1.91636 0.544149,0.89903 1.561472,1.53781 1.040981,0.66244 2.531477,1.04098 1.490496,0.37854 3.430506,0.37854 1.798058,0 3.335871,-0.4022 1.561472,-0.4022 2.697088,-1.13561 1.159274,-0.73342 1.798058,-1.75074 0.662443,-1.01733 0.662443,-2.22392 z m 2.460501,-24.08452 v 0.78074 q 0,0.52049 -0.662443,0.63878 l -3.596117,0.26025 q 0.662443,0.89903 1.017323,2.01098 0.35488,1.11196 0.35488,2.41319 0,1.70342 -0.615125,3.09928 -0.591467,1.3722 -1.703424,2.36587 -1.088299,0.97 -2.64977,1.51415 -1.537813,0.54415 -3.406848,0.54415 -2.010986,0 -3.667092,-0.61512 -0.993664,0.5678 -1.585131,1.34854 -0.567808,0.75708 -0.567808,1.51415 0,1.01733 0.70976,1.56148 0.733419,0.54415 1.892693,0.80439 1.182933,0.23659 2.673429,0.30756 1.514154,0.071 3.075626,0.16561 1.561472,0.071 3.051968,0.28391 1.514154,0.21293 2.673429,0.75708 1.182933,0.52049 1.892693,1.49049 0.733418,0.94635 0.733418,2.53148 0,1.46684 -0.733418,2.81538 -0.733419,1.34854 -2.12928,2.38952 -1.372202,1.04099 -3.335872,1.65611 -1.963669,0.63878 -4.400511,0.63878 -2.484159,0 -4.353194,-0.52049 -1.869034,-0.49683 -3.146602,-1.3722 -1.253909,-0.85171 -1.892693,-1.98733 -0.638784,-1.13561 -0.638784,-2.41318 0,-1.86903 1.230251,-3.19392 1.23025,-1.34854 3.35953,-2.10562 -1.182933,-0.4022 -1.916352,-1.15927 -0.70976,-0.78074 -0.70976,-2.10563 0,-0.49683 0.18927,-1.04098 0.189269,-0.54415 0.567807,-1.06464 0.378539,-0.54415 0.922688,-1.01732 0.54415,-0.47317 1.230251,-0.85171 -1.679765,-0.97001 -2.626112,-2.5788 -0.922688,-1.60878 -0.922688,-3.76172 0,-1.70343 0.591467,-3.07563 0.615125,-1.39586 1.727082,-2.38952 1.111957,-0.99367 2.64977,-1.53782 1.561472,-0.54415 3.454165,-0.54415 1.561472,0 2.862698,0.37854 1.324886,0.37854 2.365867,1.06464 z"
         style="font-style:normal;font-variant:normal;font-weight:300;font-stretch:normal;font-family:Lato;-inkscape-font-specification:'Lato Light';fill:#333333;stroke-width:1.18293321"
         id="path3702" />
      <path
         d="m 81.091574,124.88033 v 34.42335 h -2.271231 v -34.42335 z"
         style="font-style:normal;font-variant:normal;font-weight:300;font-stretch:normal;font-family:Lato;-inkscape-font-specification:'Lato Light';fill:#333333;stroke-width:1.18293321"
         id="path3704" />
      <path
         d="m 91.558318,135.76331 v 23.54037 h -2.247573 v -23.54037 z m 0.970005,-8.11492 q 0,0.42586 -0.18927,0.80439 -0.16561,0.35488 -0.449514,0.63879 -0.283904,0.2839 -0.662443,0.44951 -0.378538,0.16561 -0.804394,0.16561 -0.425856,0 -0.804395,-0.16561 -0.378538,-0.16561 -0.662442,-0.44951 -0.283904,-0.28391 -0.449515,-0.63879 -0.165611,-0.37853 -0.165611,-0.80439 0,-0.42586 0.165611,-0.80439 0.165611,-0.4022 0.449515,-0.68611 0.283904,-0.2839 0.662442,-0.44951 0.378539,-0.16561 0.804395,-0.16561 0.425856,0 0.804394,0.16561 0.378539,0.16561 0.662443,0.44951 0.283904,0.28391 0.449514,0.68611 0.18927,0.37853 0.18927,0.80439 z"
         style="font-style:normal;font-variant:normal;font-weight:300;font-stretch:normal;font-family:Lato;-inkscape-font-specification:'Lato Light';fill:#333333;stroke-width:1.18293321"
         id="path3706" />
      <path
         d="m 116.09975,145.1558 q 0,-1.89269 -0.54415,-3.38319 -0.52049,-1.51415 -1.4905,-2.55513 -0.97,-1.04099 -2.31855,-1.58513 -1.32488,-0.56781 -2.93367,-0.56781 -1.82172,0 -3.2649,0.56781 -1.44318,0.5678 -2.50782,1.63244 -1.04098,1.06464 -1.67976,2.55514 -0.63879,1.49049 -0.85171,3.33587 z m -15.70936,1.44318 v 0.44951 q 0,2.64977 0.61513,4.66076 0.61512,2.01099 1.75074,3.38319 1.13562,1.34854 2.7444,2.03464 1.60879,0.6861 3.59612,0.6861 1.7744,0 3.07563,-0.37853 1.30122,-0.4022 2.17659,-0.87537 0.89903,-0.49684 1.41952,-0.87537 0.52049,-0.4022 0.75708,-0.4022 0.30756,0 0.47317,0.23658 l 0.61513,0.75708 q -0.56781,0.70976 -1.51415,1.32489 -0.92269,0.61512 -2.08197,1.06464 -1.13561,0.42585 -2.4605,0.6861 -1.30122,0.26024 -2.62611,0.26024 -2.41318,0 -4.40051,-0.82805 -1.98733,-0.85171 -3.40685,-2.4605 -1.419518,-1.60879 -2.200254,-3.92734 -0.757077,-2.34221 -0.757077,-5.34686 0,-2.53147 0.70976,-4.66075 0.733419,-2.15294 2.081961,-3.69075 1.3722,-1.56148 3.33587,-2.43685 1.98733,-0.87537 4.49515,-0.87537 1.98733,0 3.69075,0.6861 1.70342,0.6861 2.95733,2.01099 1.25391,1.30123 1.96367,3.21758 0.73342,1.91635 0.73342,4.40051 0,0.52049 -0.14195,0.70976 -0.14195,0.18927 -0.47317,0.18927 z"
         style="font-style:normal;font-variant:normal;font-weight:300;font-stretch:normal;font-family:Lato;-inkscape-font-specification:'Lato Light';fill:#333333;stroke-width:1.18293321"
         id="path3708" />
      <path
         d="m 126.41418,141.44139 q 0.54415,-1.44318 1.23025,-2.55514 0.70976,-1.13561 1.60879,-1.91635 0.92269,-0.78073 2.03465,-1.18293 1.13561,-0.42586 2.50782,-0.42586 0.73342,0 1.44318,0.14196 0.70976,0.11829 1.2539,0.44951 l -0.18926,1.56147 q -0.1183,0.37854 -0.44952,0.37854 -0.2839,0 -0.87537,-0.16561 -0.56781,-0.16561 -1.51415,-0.16561 -1.37221,0 -2.43685,0.42586 -1.04098,0.40219 -1.89269,1.23025 -0.82805,0.82805 -1.46684,2.0583 -0.61512,1.20659 -1.13561,2.79172 v 15.23618 h -2.27123 v -23.54037 h 1.20659 q 0.4022,0 0.56781,0.16561 0.16561,0.16561 0.21292,0.56781 z"
         style="font-style:normal;font-variant:normal;font-weight:300;font-stretch:normal;font-family:Lato;-inkscape-font-specification:'Lato Light';fill:#333333;stroke-width:1.18293321"
         id="path3710" />
      <path
         d="m 152.81799,148.94119 q -2.53148,0.11829 -4.25856,0.44951 -1.72708,0.30756 -2.76807,0.8044 -1.04098,0.49683 -1.49049,1.15927 -0.44952,0.66244 -0.44952,1.44318 0,1.53781 0.89903,2.20025 0.92269,0.66245 2.38953,0.66245 1.79806,0 3.09928,-0.63879 1.32489,-0.66244 2.5788,-1.98733 z m -13.39081,-10.52811 q 4.18759,-3.8327 10.07859,-3.8327 2.12928,0 3.80905,0.70976 1.67976,0.6861 2.83904,1.94001 1.15927,1.23025 1.75074,2.95733 0.61512,1.72708 0.61512,3.78539 v 15.33081 h -2.64977 q -0.82805,0 -1.27756,-0.23659 -0.44952,-0.26024 -0.70976,-1.01732 l -0.52049,-1.75074 q -0.92269,0.82805 -1.79806,1.46684 -0.87537,0.61512 -1.82172,1.04098 -0.94635,0.42585 -2.03464,0.63878 -1.06464,0.23659 -2.36587,0.23659 -1.53781,0 -2.83904,-0.4022 -1.30123,-0.42585 -2.24757,-1.25391 -0.94635,-0.82805 -1.46684,-2.0583 -0.52049,-1.23025 -0.52049,-2.8627 0,-0.92269 0.30756,-1.82172 0.30756,-0.92268 0.99367,-1.75074 0.70976,-0.82805 1.82171,-1.56147 1.11196,-0.73342 2.72075,-1.27757 1.63245,-0.54415 3.78539,-0.87537 2.15293,-0.35488 4.921,-0.42585 v -1.41952 q 0,-2.43685 -1.04098,-3.59612 -1.04099,-1.18293 -3.00465,-1.18293 -1.41952,0 -2.36587,0.33122 -0.92269,0.33122 -1.63245,0.75708 -0.70976,0.40219 -1.30122,0.73341 -0.56781,0.33123 -1.27757,0.33123 -0.61513,0 -1.04098,-0.30757 -0.42586,-0.33122 -0.68611,-0.75707 z"
         style="font-style:normal;font-variant:normal;font-weight:bold;font-stretch:normal;font-family:Lato;-inkscape-font-specification:'Lato Bold';fill:#aa0000;stroke-width:1.18293321"
         id="path3712" />
      <path
         d="m 164.02333,159.30368 v -24.27379 h 3.57246 q 1.13561,0 1.49049,1.06464 l 0.37854,1.79806 q 0.63878,-0.70976 1.32488,-1.30123 0.70976,-0.59146 1.4905,-1.01732 0.8044,-0.42585 1.70342,-0.66244 0.92269,-0.26025 2.01099,-0.26025 2.29489,0 3.76173,1.25391 1.49049,1.23025 2.22391,3.28856 0.56781,-1.20659 1.41952,-2.05831 0.85171,-0.87537 1.86904,-1.41952 1.01732,-0.54415 2.15293,-0.80439 1.15928,-0.26025 2.31855,-0.26025 2.01099,0 3.57246,0.61513 1.56147,0.61512 2.62611,1.79806 1.06464,1.18293 1.60879,2.88635 0.56781,1.70343 0.56781,3.90368 v 15.44911 h -5.84369 v -15.44911 q 0,-2.31855 -1.01732,-3.47782 -1.01732,-1.18293 -2.98099,-1.18293 -0.89903,0 -1.67977,0.30756 -0.75708,0.30756 -1.34854,0.89903 -0.56781,0.56781 -0.89903,1.44318 -0.33122,0.87537 -0.33122,2.01098 v 15.44911 h -5.86735 v -15.44911 q 0,-2.43684 -0.99366,-3.5488 -0.97001,-1.11195 -2.8627,-1.11195 -1.27757,0 -2.38953,0.63878 -1.0883,0.61513 -2.03464,1.70342 v 17.76766 z"
         style="font-style:normal;font-variant:normal;font-weight:bold;font-stretch:normal;font-family:Lato;-inkscape-font-specification:'Lato Bold';fill:#aa0000;stroke-width:1.18293321"
         id="path3714" />
      <path
         d="m 214.4111,134.65135 q 2.69709,0 4.89735,0.87537 2.22391,0.87537 3.78538,2.48416 1.58513,1.60879 2.43685,3.92734 0.85171,2.31855 0.85171,5.18125 0,2.88636 -0.85171,5.2049 -0.85172,2.31855 -2.43685,3.951 -1.56147,1.63245 -3.78538,2.50782 -2.20026,0.87537 -4.89735,0.87537 -2.72074,0 -4.94466,-0.87537 -2.22391,-0.87537 -3.80904,-2.50782 -1.56147,-1.63245 -2.43684,-3.951 -0.85172,-2.31854 -0.85172,-5.2049 0,-2.8627 0.85172,-5.18125 0.87537,-2.31855 2.43684,-3.92734 1.58513,-1.60879 3.80904,-2.48416 2.22392,-0.87537 4.94466,-0.87537 z m 0,20.51206 q 3.02831,0 4.47149,-2.03464 1.46684,-2.03465 1.46684,-5.96198 0,-3.92734 -1.46684,-5.98565 -1.44318,-2.0583 -4.47149,-2.0583 -3.07562,0 -4.56612,2.08196 -1.46684,2.05831 -1.46684,5.96199 0,3.90368 1.46684,5.96198 1.4905,2.03464 4.56612,2.03464 z"
         style="font-style:normal;font-variant:normal;font-weight:bold;font-stretch:normal;font-family:Lato;-inkscape-font-specification:'Lato Bold';fill:#aa0000;stroke-width:1.18293321"
         id="path3716" />
      <path
         d="m 236.35303,139.24113 q 1.13561,-2.17659 2.69708,-3.40684 1.56148,-1.25391 3.69075,-1.25391 1.67977,0 2.69709,0.73342 l -0.37854,4.37685 q -0.11829,0.42585 -0.35488,0.61512 -0.21292,0.16561 -0.59146,0.16561 -0.35488,0 -1.06464,-0.11829 -0.6861,-0.11829 -1.34855,-0.11829 -0.97,0 -1.72708,0.2839 -0.75708,0.28391 -1.3722,0.82806 -0.59147,0.52049 -1.06464,1.27756 -0.44952,0.75708 -0.85171,1.72709 v 14.95227 h -5.84369 v -24.27379 h 3.4305 q 0.89903,0 1.25391,0.33122 0.35488,0.30757 0.47318,1.13562 z"
         style="font-style:normal;font-variant:normal;font-weight:bold;font-stretch:normal;font-family:Lato;-inkscape-font-specification:'Lato Bold';fill:#aa0000;stroke-width:1.18293321"
         id="path3718" />
      <path
         d="m 254.54876,135.02989 v 24.27379 h -5.86735 v -24.27379 z m 0.80439,-7.07394 q 0,0.75708 -0.30756,1.41952 -0.30756,0.66244 -0.82806,1.15928 -0.49683,0.49683 -1.18293,0.80439 -0.6861,0.2839 -1.46684,0.2839 -0.75707,0 -1.44317,-0.2839 -0.66245,-0.30756 -1.15928,-0.80439 -0.49683,-0.49684 -0.80439,-1.15928 -0.28391,-0.66244 -0.28391,-1.41952 0,-0.78073 0.28391,-1.46683 0.30756,-0.68611 0.80439,-1.18294 0.49683,-0.49683 1.15928,-0.78073 0.6861,-0.30757 1.44317,-0.30757 0.78074,0 1.46684,0.30757 0.6861,0.2839 1.18293,0.78073 0.5205,0.49683 0.82806,1.18294 0.30756,0.6861 0.30756,1.46683 z"
         style="font-style:normal;font-variant:normal;font-weight:bold;font-stretch:normal;font-family:Lato;-inkscape-font-specification:'Lato Bold';fill:#aa0000;stroke-width:1.18293321"
         id="path3720" />
      <path
         d="m 260.5063,159.30368 v -24.27379 h 3.57246 q 1.13561,0 1.49049,1.06464 l 0.37854,1.79806 q 0.63878,-0.70976 1.32489,-1.30123 0.70976,-0.59146 1.49049,-1.01732 0.8044,-0.42585 1.70343,-0.66244 0.92268,-0.26025 2.01098,-0.26025 2.29489,0 3.76173,1.25391 1.49049,1.23025 2.22391,3.28856 0.56781,-1.20659 1.41952,-2.05831 0.85172,-0.87537 1.86904,-1.41952 1.01732,-0.54415 2.15294,-0.80439 1.15927,-0.26025 2.31854,-0.26025 2.01099,0 3.57246,0.61513 1.56147,0.61512 2.62611,1.79806 1.06464,1.18293 1.60879,2.88635 0.56781,1.70343 0.56781,3.90368 v 15.44911 h -5.84369 v -15.44911 q 0,-2.31855 -1.01732,-3.47782 -1.01732,-1.18293 -2.98099,-1.18293 -0.89903,0 -1.67977,0.30756 -0.75707,0.30756 -1.34854,0.89903 -0.56781,0.56781 -0.89903,1.44318 -0.33122,0.87537 -0.33122,2.01098 v 15.44911 h -5.86735 v -15.44911 q 0,-2.43684 -0.99366,-3.5488 -0.97001,-1.11195 -2.8627,-1.11195 -1.27757,0 -2.38953,0.63878 -1.0883,0.61513 -2.03464,1.70342 v 17.76766 z"
         style="font-style:normal;font-variant:normal;font-weight:bold;font-stretch:normal;font-family:Lato;-inkscape-font-specification:'Lato Bold';fill:#aa0000;stroke-width:1.18293321"
         id="path3722" />
    </g>
    <g
       aria-label="front/back end developer"
       style="font-style:normal;font-weight:normal;font-size:20.32000351px;line-height:1.25;font-family:sans-serif;letter-spacing:0px;word-spacing:0px;fill:#000000;fill-opacity:1;stroke:none;stroke-width:0.50800008"
       id="text3696">
      <path
         d="M 7.3602509,176.29348 H 7.291349 q -0.2135959,-0.062 -0.5581054,-0.12402 -0.3445096,-0.0689 -0.6063368,-0.0689 -0.8337131,0 -1.2126736,0.37207 -0.3720703,0.36518 -0.3720703,1.3298 v 0.26183 h 2.3357747 v 1.08865 H 4.5835041 v 6.60769 H 3.2881482 v -6.60769 H 2.413094 v -1.08865 h 0.8750542 v -0.25494 q 0,-1.37114 0.6821289,-2.1015 0.6821289,-0.73725 1.9705945,-0.73725 0.4340821,0 0.7785916,0.0413 0.3513997,0.0413 0.6407877,0.0965 z"
         style="font-size:14.11111069px;letter-spacing:4.90802097px;fill:#333333;stroke-width:0.50800008"
         id="path3725" />
      <path
         d="m 17.890668,179.47675 h -0.0689 q -0.289388,-0.0689 -0.564996,-0.0965 -0.268717,-0.0344 -0.640788,-0.0344 -0.599446,0 -1.157552,0.26871 -0.558105,0.26183 -1.074869,0.68213 v 5.46392 h -1.295356 v -7.69634 h 1.295356 v 1.13688 q 0.771701,-0.62011 1.357367,-0.87505 0.592557,-0.26183 1.205784,-0.26183 0.337619,0 0.489203,0.0207 0.151584,0.0138 0.454753,0.062 z"
         style="font-size:14.11111069px;letter-spacing:4.90802097px;fill:#333333;stroke-width:0.50800008"
         id="path3727" />
      <path
         d="m 30.591494,181.91588 q 0,1.88102 -0.964627,2.96967 -0.964626,1.08865 -2.583821,1.08865 -1.632975,0 -2.597602,-1.08865 -0.957737,-1.08865 -0.957737,-2.96967 0,-1.88102 0.957737,-2.96967 0.964627,-1.09554 2.597602,-1.09554 1.619195,0 2.583821,1.09554 0.964627,1.08865 0.964627,2.96967 z m -1.336697,0 q 0,-1.49517 -0.585666,-2.21864 -0.585666,-0.73036 -1.626085,-0.73036 -1.054199,0 -1.639866,0.73036 -0.578776,0.72347 -0.578776,2.21864 0,1.44694 0.585667,2.19797 0.585666,0.74414 1.632975,0.74414 1.033528,0 1.619195,-0.73725 0.592556,-0.74414 0.592556,-2.20486 z"
         style="font-size:14.11111069px;letter-spacing:4.90802097px;fill:#333333;stroke-width:0.50800008"
         id="path3729" />
      <path
         d="m 43.94689,185.7606 h -1.295356 v -4.38216 q 0,-0.53054 -0.06201,-0.99218 -0.06201,-0.46854 -0.227377,-0.73036 -0.172254,-0.28939 -0.496093,-0.4272 -0.323839,-0.14469 -0.840604,-0.14469 -0.530544,0 -1.10932,0.26183 -0.578776,0.26182 -1.109321,0.66835 v 5.74641 h -1.295356 v -7.69634 h 1.295356 v 0.85439 q 0.606337,-0.50299 1.254015,-0.78549 0.647678,-0.28249 1.329807,-0.28249 1.247124,0 1.901692,0.75103 0.654568,0.75103 0.654568,2.16352 z"
         style="font-size:14.11111069px;letter-spacing:4.90802097px;fill:#333333;stroke-width:0.50800008"
         id="path3731" />
      <path
         d="m 55.34547,185.6917 q -0.36518,0.0965 -0.799262,0.15848 -0.427192,0.062 -0.764811,0.062 -1.178223,0 -1.79145,-0.6339 -0.613227,-0.6339 -0.613227,-2.0326 v -4.09278 h -0.875054 v -1.08865 h 0.875054 v -2.21175 h 1.295356 v 2.21175 h 2.673394 v 1.08865 h -2.673394 v 3.50711 q 0,0.60634 0.02756,0.95085 0.02756,0.33761 0.192925,0.63389 0.151585,0.27561 0.413412,0.40652 0.268717,0.12403 0.813042,0.12403 0.316949,0 0.661459,-0.0896 0.344509,-0.0965 0.496093,-0.15848 h 0.0689 z"
         style="font-size:14.11111069px;letter-spacing:4.90802097px;fill:#333333;stroke-width:0.50800008"
         id="path3733" />
      <path
         d="m 66.475334,175.03947 -4.940266,12.81575 h -1.192003 l 4.919596,-12.81575 z"
         style="font-size:14.11111069px;letter-spacing:4.90802097px;fill:#333333;stroke-width:0.50800008"
         id="path3735" />
      <path
         d="m 79.927195,181.85387 q 0,0.96462 -0.275608,1.73632 -0.268718,0.77171 -0.73036,1.29536 -0.489204,0.54433 -1.07487,0.81993 -0.585666,0.26872 -1.288466,0.26872 -0.654568,0 -1.143771,-0.15847 -0.489204,-0.15159 -0.964627,-0.41342 l -0.08268,0.35829 h -1.212674 v -10.72113 h 1.295356 v 3.83094 q 0.544325,-0.44786 1.157552,-0.73036 0.613227,-0.28938 1.378038,-0.28938 1.364258,0 2.14974,1.0473 0.792372,1.04731 0.792372,2.9559 z m -1.336697,0.0344 q 0,-1.37804 -0.454753,-2.08773 -0.454753,-0.71658 -1.467611,-0.71658 -0.564995,0 -1.143771,0.24805 -0.578776,0.24115 -1.07487,0.627 v 4.40973 q 0.551215,0.24804 0.943956,0.34451 0.399631,0.0965 0.902615,0.0965 1.07487,0 1.681207,-0.7028 0.613227,-0.70969 0.613227,-2.21864 z"
         style="font-size:14.11111069px;letter-spacing:4.90802097px;fill:#333333;stroke-width:0.50800008"
         id="path3737" />
      <path
         d="m 92.83472,185.7606 h -1.288465 v -0.81993 q -0.172255,0.11714 -0.468533,0.33073 -0.289388,0.20671 -0.564996,0.33073 -0.323839,0.15847 -0.74414,0.26183 -0.420302,0.11024 -0.985298,0.11024 -1.040419,0 -1.763889,-0.68902 -0.72347,-0.68902 -0.72347,-1.757 0,-0.87505 0.372071,-1.41249 0.37896,-0.54432 1.074869,-0.85438 0.7028,-0.31006 1.688097,-0.4203 0.985297,-0.11024 2.115289,-0.16537 v -0.19981 q 0,-0.44097 -0.158475,-0.73036 -0.151584,-0.28939 -0.440972,-0.45475 -0.275608,-0.15848 -0.661458,-0.2136 -0.385851,-0.0551 -0.806153,-0.0551 -0.509874,0 -1.136881,0.1378 -0.627007,0.13092 -1.295356,0.38585 h -0.0689 v -1.31602 q 0.378961,-0.10336 1.095541,-0.22738 0.716579,-0.12402 1.412489,-0.12402 0.813042,0 1.412489,0.1378 0.606337,0.13091 1.047309,0.45475 0.434082,0.31695 0.661458,0.81994 0.227376,0.50298 0.227376,1.24712 z m -1.288465,-1.8948 v -2.14285 q -0.592557,0.0344 -1.398709,0.10336 -0.799262,0.0689 -1.267795,0.19981 -0.558106,0.15848 -0.902615,0.4961 -0.34451,0.33072 -0.34451,0.91639 0,0.66146 0.399631,0.99908 0.399631,0.33073 1.219564,0.33073 0.682129,0 1.247125,-0.26183 0.564995,-0.26872 1.047309,-0.64079 z"
         style="font-size:14.11111069px;letter-spacing:4.90802097px;fill:#333333;stroke-width:0.50800008"
         id="path3739" />
      <path
         d="m 105.94207,185.27829 q -0.64768,0.31006 -1.23335,0.48231 -0.57877,0.17226 -1.23334,0.17226 -0.83371,0 -1.52962,-0.24116 -0.69591,-0.24804 -1.19201,-0.74414 -0.50298,-0.49609 -0.778587,-1.25401 -0.275607,-0.75792 -0.275607,-1.77078 0,-1.88791 1.033524,-2.96278 1.04042,-1.07487 2.7423,-1.07487 0.66146,0 1.29536,0.18603 0.64078,0.18604 1.17133,0.45475 v 1.44005 h -0.0689 q -0.59256,-0.46164 -1.22646,-0.70969 -0.627,-0.24804 -1.22645,-0.24804 -1.10243,0 -1.74322,0.74414 -0.6339,0.73725 -0.6339,2.17041 0,1.39182 0.62012,2.14285 0.62701,0.74414 1.757,0.74414 0.39274,0 0.79926,-0.10335 0.40652,-0.10336 0.73036,-0.26872 0.2825,-0.1447 0.53055,-0.30317 0.24804,-0.16536 0.39274,-0.2825 h 0.0689 z"
         style="font-size:14.11111069px;letter-spacing:4.90802097px;fill:#333333;stroke-width:0.50800008"
         id="path3741" />
      <path
         d="m 119.50417,185.7606 h -1.70877 l -3.0868,-3.3693 -0.84061,0.79926 v 2.57004 h -1.29535 v -10.72113 h 1.29535 v 6.87641 l 3.74138,-3.85162 h 1.63297 l -3.57601,3.55534 z"
         style="font-size:14.11111069px;letter-spacing:4.90802097px;fill:#333333;stroke-width:0.50800008"
         id="path3743" />
      <path
         d="m 142.08774,182.04679 h -5.67063 q 0,0.70969 0.2136,1.24024 0.21359,0.52365 0.58566,0.86127 0.35829,0.33073 0.8475,0.49609 0.49609,0.16537 1.08865,0.16537 0.78548,0 1.57785,-0.31006 0.79926,-0.31695 1.13688,-0.62012 h 0.0689 v 1.41249 q -0.65456,0.27561 -1.33669,0.46164 -0.68213,0.18604 -1.43316,0.18604 -1.91548,0 -2.99035,-1.03353 -1.07487,-1.04042 -1.07487,-2.949 0,-1.88791 1.02664,-2.99723 1.03353,-1.10932 2.71474,-1.10932 1.55718,0 2.39778,0.9095 0.8475,0.90951 0.8475,2.58382 z m -1.26091,-0.99219 q -0.007,-1.01974 -0.51676,-1.57785 -0.50299,-0.5581 -1.53651,-0.5581 -1.04042,0 -1.66054,0.61322 -0.61323,0.61323 -0.69591,1.52273 z"
         style="font-size:14.11111069px;letter-spacing:4.90802097px;fill:#333333;stroke-width:0.50800008"
         id="path3745" />
      <path
         d="m 155.3949,185.7606 h -1.29535 v -4.38216 q 0,-0.53054 -0.062,-0.99218 -0.062,-0.46854 -0.22738,-0.73036 -0.17226,-0.28939 -0.49609,-0.4272 -0.32384,-0.14469 -0.84061,-0.14469 -0.53054,0 -1.10932,0.26183 -0.57877,0.26182 -1.10932,0.66835 v 5.74641 h -1.29535 v -7.69634 h 1.29535 v 0.85439 q 0.60634,-0.50299 1.25402,-0.78549 0.64767,-0.28249 1.3298,-0.28249 1.24713,0 1.9017,0.75103 0.65456,0.75103 0.65456,2.16352 z"
         style="font-size:14.11111069px;letter-spacing:4.90802097px;fill:#333333;stroke-width:0.50800008"
         id="path3747" />
      <path
         d="m 169.03969,185.7606 h -1.29536 v -0.80615 q -0.55811,0.48232 -1.16444,0.75103 -0.60634,0.26872 -1.31603,0.26872 -1.37804,0 -2.19108,-1.06109 -0.80615,-1.06109 -0.80615,-2.94211 0,-0.97841 0.27561,-1.74322 0.28249,-0.76481 0.75792,-1.30224 0.46853,-0.52366 1.08865,-0.79927 0.627,-0.2756 1.29535,-0.2756 0.60634,0 1.07487,0.13091 0.46854,0.12402 0.9853,0.39274 v -3.33485 h 1.29536 z m -1.29536,-1.8948 v -4.41661 q -0.52365,-0.23427 -0.93707,-0.32384 -0.41341,-0.0896 -0.90261,-0.0896 -1.08865,0 -1.69499,0.75792 -0.60633,0.75792 -0.60633,2.14974 0,1.37115 0.46853,2.08773 0.46853,0.70969 1.50206,0.70969 0.55122,0 1.11621,-0.24116 0.565,-0.24805 1.0542,-0.6339 z"
         style="font-size:14.11111069px;letter-spacing:4.90802097px;fill:#333333;stroke-width:0.50800008"
         id="path3749" />
      <path
         d="m 192.60855,185.7606 h -1.29536 v -0.80615 q -0.5581,0.48232 -1.16444,0.75103 -0.60634,0.26872 -1.31603,0.26872 -1.37803,0 -2.19108,-1.06109 -0.80615,-1.06109 -0.80615,-2.94211 0,-0.97841 0.27561,-1.74322 0.2825,-0.76481 0.75792,-1.30224 0.46853,-0.52366 1.08865,-0.79927 0.62701,-0.2756 1.29536,-0.2756 0.60633,0 1.07487,0.13091 0.46853,0.12402 0.98529,0.39274 v -3.33485 h 1.29536 z m -1.29536,-1.8948 v -4.41661 q -0.52365,-0.23427 -0.93706,-0.32384 -0.41341,-0.0896 -0.90262,-0.0896 -1.08865,0 -1.69499,0.75792 -0.60633,0.75792 -0.60633,2.14974 0,1.37115 0.46853,2.08773 0.46853,0.70969 1.50206,0.70969 0.55122,0 1.11621,-0.24116 0.565,-0.24805 1.0542,-0.6339 z"
         style="font-size:14.11111069px;letter-spacing:4.90802097px;fill:#333333;stroke-width:0.50800008"
         id="path3751" />
      <path
         d="m 206.50827,182.04679 h -5.67063 q 0,0.70969 0.2136,1.24024 0.21359,0.52365 0.58566,0.86127 0.35829,0.33073 0.8475,0.49609 0.49609,0.16537 1.08865,0.16537 0.78548,0 1.57785,-0.31006 0.79926,-0.31695 1.13688,-0.62012 h 0.0689 v 1.41249 q -0.65457,0.27561 -1.3367,0.46164 -0.68213,0.18604 -1.43316,0.18604 -1.91547,0 -2.99034,-1.03353 -1.07487,-1.04042 -1.07487,-2.949 0,-1.88791 1.02663,-2.99723 1.03353,-1.10932 2.71474,-1.10932 1.55718,0 2.39779,0.9095 0.84749,0.90951 0.84749,2.58382 z m -1.26091,-0.99219 q -0.007,-1.01974 -0.51676,-1.57785 -0.50298,-0.5581 -1.53651,-0.5581 -1.04042,0 -1.66054,0.61322 -0.61323,0.61323 -0.69591,1.52273 z"
         style="font-size:14.11111069px;letter-spacing:4.90802097px;fill:#333333;stroke-width:0.50800008"
         id="path3753" />
      <path
         d="m 220.03592,178.06426 -3.11436,7.69634 h -1.30225 l -3.0937,-7.69634 h 1.4056 l 2.38401,6.12538 2.36333,-6.12538 z"
         style="font-size:14.11111069px;letter-spacing:4.90802097px;fill:#333333;stroke-width:0.50800008"
         id="path3755" />
      <path
         d="m 232.97101,182.04679 h -5.67063 q 0,0.70969 0.2136,1.24024 0.21359,0.52365 0.58566,0.86127 0.35829,0.33073 0.8475,0.49609 0.49609,0.16537 1.08865,0.16537 0.78548,0 1.57785,-0.31006 0.79926,-0.31695 1.13688,-0.62012 h 0.0689 v 1.41249 q -0.65456,0.27561 -1.33669,0.46164 -0.68213,0.18604 -1.43316,0.18604 -1.91548,0 -2.99035,-1.03353 -1.07487,-1.04042 -1.07487,-2.949 0,-1.88791 1.02664,-2.99723 1.03353,-1.10932 2.71474,-1.10932 1.55718,0 2.39778,0.9095 0.8475,0.90951 0.8475,2.58382 z m -1.26091,-0.99219 q -0.007,-1.01974 -0.51676,-1.57785 -0.50299,-0.5581 -1.53651,-0.5581 -1.04042,0 -1.66054,0.61322 -0.61323,0.61323 -0.69591,1.52273 z"
         style="font-size:14.11111069px;letter-spacing:4.90802097px;fill:#333333;stroke-width:0.50800008"
         id="path3757" />
      <path
         d="m 241.15187,185.7606 h -1.29535 v -10.72113 h 1.29535 z"
         style="font-size:14.11111069px;letter-spacing:4.90802097px;fill:#333333;stroke-width:0.50800008"
         id="path3759" />
      <path
         d="m 255.14117,181.91588 q 0,1.88102 -0.96463,2.96967 -0.96463,1.08865 -2.58382,1.08865 -1.63298,0 -2.5976,-1.08865 -0.95774,-1.08865 -0.95774,-2.96967 0,-1.88102 0.95774,-2.96967 0.96462,-1.09554 2.5976,-1.09554 1.61919,0 2.58382,1.09554 0.96463,1.08865 0.96463,2.96967 z m -1.3367,0 q 0,-1.49517 -0.58567,-2.21864 -0.58566,-0.73036 -1.62608,-0.73036 -1.0542,0 -1.63987,0.73036 -0.57877,0.72347 -0.57877,2.21864 0,1.44694 0.58566,2.19797 0.58567,0.74414 1.63298,0.74414 1.03353,0 1.61919,-0.73725 0.59256,-0.74414 0.59256,-2.20486 z"
         style="font-size:14.11111069px;letter-spacing:4.90802097px;fill:#333333;stroke-width:0.50800008"
         id="path3761" />
      <path
         d="m 268.83419,181.81942 q 0,0.93706 -0.26872,1.71565 -0.26871,0.7717 -0.75792,1.30914 -0.45475,0.50987 -1.07487,0.79237 -0.61322,0.27561 -1.30224,0.27561 -0.59945,0 -1.08865,-0.13091 -0.48232,-0.13092 -0.9853,-0.40653 v 3.22461 h -1.29536 v -10.5351 h 1.29536 v 0.80615 q 0.51676,-0.43408 1.15755,-0.72347 0.64768,-0.29627 1.37804,-0.29627 1.39182,0 2.16352,1.0542 0.77859,1.0473 0.77859,2.91455 z m -1.33669,0.0344 q 0,-1.39182 -0.47543,-2.08084 -0.47542,-0.68902 -1.46072,-0.68902 -0.5581,0 -1.1231,0.24116 -0.565,0.24115 -1.08176,0.63389 v 4.36149 q 0.55122,0.24805 0.94396,0.33762 0.39963,0.0896 0.90261,0.0896 1.08176,0 1.6881,-0.73036 0.60634,-0.73036 0.60634,-2.16352 z"
         style="font-size:14.11111069px;letter-spacing:4.90802097px;fill:#333333;stroke-width:0.50800008"
         id="path3763" />
      <path
         d="m 282.20335,182.04679 h -5.67062 q 0,0.70969 0.21359,1.24024 0.2136,0.52365 0.58567,0.86127 0.35829,0.33073 0.84749,0.49609 0.4961,0.16537 1.08865,0.16537 0.78548,0 1.57786,-0.31006 0.79926,-0.31695 1.13688,-0.62012 h 0.0689 v 1.41249 q -0.65457,0.27561 -1.3367,0.46164 -0.68213,0.18604 -1.43316,0.18604 -1.91547,0 -2.99034,-1.03353 -1.07487,-1.04042 -1.07487,-2.949 0,-1.88791 1.02664,-2.99723 1.03353,-1.10932 2.71473,-1.10932 1.55719,0 2.39779,0.9095 0.84749,0.90951 0.84749,2.58382 z m -1.2609,-0.99219 q -0.007,-1.01974 -0.51677,-1.57785 -0.50298,-0.5581 -1.53651,-0.5581 -1.04042,0 -1.66053,0.61322 -0.61323,0.61323 -0.69591,1.52273 z"
         style="font-size:14.11111069px;letter-spacing:4.90802097px;fill:#333333;stroke-width:0.50800008"
         id="path3765" />
      <path
         d="m 293.87754,179.47675 h -0.0689 q -0.28939,-0.0689 -0.56499,-0.0965 -0.26872,-0.0344 -0.64079,-0.0344 -0.59945,0 -1.15755,0.26871 -0.55811,0.26183 -1.07487,0.68213 v 5.46392 h -1.29536 v -7.69634 h 1.29536 v 1.13688 q 0.7717,-0.62011 1.35736,-0.87505 0.59256,-0.26183 1.20579,-0.26183 0.33762,0 0.4892,0.0207 0.15159,0.0138 0.45475,0.062 z"
         style="font-size:14.11111069px;letter-spacing:4.90802097px;fill:#333333;stroke-width:0.50800008"
         id="path3767" />
    </g>
  </g>
</svg>
